<svg id="visual" viewBox="0 0 960 540" width="960" height="540" xmlns="http://www.w3.org/2000/svg" xmlns:xlink="http://www.w3.org/1999/xlink" version="1.1"><rect x="0" y="0" width="960" height="540" fill="#252525"></rect><defs><linearGradient id="grad1_0" x1="43.8%" y1="0%" x2="100%" y2="100%"><stop offset="14.444444444444446%" stop-color="#00d8c9" stop-opacity="1"></stop><stop offset="85.55555555555554%" stop-color="#00d8c9" stop-opacity="1"></stop></linearGradient></defs><defs><linearGradient id="grad1_1" x1="43.8%" y1="0%" x2="100%" y2="100%"><stop offset="14.444444444444446%" stop-color="#00d8c9" stop-opacity="1"></stop><stop offset="85.55555555555554%" stop-color="#252525" stop-opacity="1"></stop></linearGradient></defs><defs><linearGradient id="grad2_0" x1="0%" y1="0%" x2="56.3%" y2="100%"><stop offset="14.444444444444446%" stop-color="#00d8c9" stop-opacity="1"></stop><stop offset="85.55555555555554%" stop-color="#00d8c9" stop-opacity="1"></stop></linearGradient></defs><defs><linearGradient id="grad2_1" x1="0%" y1="0%" x2="56.3%" y2="100%"><stop offset="14.444444444444446%" stop-color="#252525" stop-opacity="1"></stop><stop offset="85.55555555555554%" stop-color="#00d8c9" stop-opacity="1"></stop></linearGradient></defs><g transform="translate(960, 0)"><path d="M0 297C-35.7 301.5 -71.4 305.9 -91.8 282.5C-112.2 259 -117.4 207.7 -131.7 181.2C-146 154.7 -169.4 153.1 -196.6 142.8C-223.8 132.6 -254.6 113.6 -272 88.4C-289.4 63.1 -293.2 31.6 -297 0L0 0Z" fill="#357971"></path><path d="M0 148.5C-17.8 150.7 -35.7 153 -45.9 141.2C-56.1 129.5 -58.7 103.8 -65.8 90.6C-73 77.4 -84.7 76.6 -98.3 71.4C-111.9 66.3 -127.3 56.8 -136 44.2C-144.7 31.6 -146.6 15.8 -148.5 0L0 0Z" fill="#00d8c9"></path></g><g transform="translate(0, 540)"><path d="M0 -297C25 -272.4 50.1 -247.8 76.6 -235.9C103.2 -224 131.3 -224.8 156.4 -215.2C181.4 -205.6 203.4 -185.5 225.7 -164C248 -142.4 270.5 -119.4 282.5 -91.8C294.4 -64.2 295.7 -32.1 297 0L0 0Z" fill="#357971"></path><path d="M0 -148.5C12.5 -136.2 25 -123.9 38.3 -117.9C51.6 -112 65.6 -112.4 78.2 -107.6C90.7 -102.8 101.7 -92.8 112.9 -82C124 -71.2 135.3 -59.7 141.2 -45.9C147.2 -32.1 147.8 -16 148.5 0L0 0Z" fill="#00d8c9"></path></g></svg>