<svg width="17" height="13" viewBox="0 0 17 13" fill="none" xmlns="http://www.w3.org/2000/svg">
<path d="M1.82612 11.8983L1.22402 11.5218C1.15176 11.226 0.915746 10.7581 1.03135 10.1773L1.34444 9.5857L2.11513 8.34875L3.92143 5.71349L4.90888 4.20763L6.14137 2.3149C6.97169 1.35252 8.41787 0.0619285 10.5132 2.02493C10.9761 2.62926 11.5701 3.41992 11.5155 3.35913L12.1822 4.36898L13.0734 5.71349L13.9645 7.05801L14.8797 8.42942L15.6985 9.6126L15.9394 10.0428C16.0196 10.3297 16.0357 10.8496 15.8912 11.226L15.6022 11.6563C15.4737 11.728 15.0772 11.9574 14.9037 11.9789C14.7191 12.0058 14.2631 11.9951 13.9163 11.7369L13.1215 10.6344L12.2304 9.18235L11.0985 7.54204L10.3519 6.46642L9.7016 5.4177L9.21992 4.74544C8.9871 4.23452 8.37216 3.51924 7.77488 4.74544L7.14869 5.71349L6.64292 6.46642L5.9204 7.54204L4.78845 9.18235L3.84918 10.6344L3.0544 11.7369L2.45231 11.9789C2.24358 11.97 1.98025 12.0704 1.82612 11.8983Z" fill="#FFFCFC"/>
<path d="M10.5132 2.02493C8.41787 0.0619285 6.97169 1.35252 6.14137 2.3149L4.90888 4.20763L3.92143 5.71349L2.11513 8.34875L1.34444 9.5857L1.03135 10.1773C0.915746 10.7581 1.15176 11.226 1.22402 11.5218L1.82612 11.8983C1.98025 12.0704 2.24358 11.97 2.45231 11.9789L3.0544 11.7369L3.84918 10.6344L4.78845 9.18235L5.9204 7.54204L6.64292 6.46642L7.14869 5.71349L7.77488 4.74544C8.37216 3.51924 8.98711 4.23452 9.21992 4.74544L9.7016 5.4177L10.3519 6.46642L11.0985 7.54204L12.2304 9.18235L13.1215 10.6344L13.9163 11.7369C14.2631 11.9951 14.7191 12.0058 14.9037 11.9789C15.0772 11.9574 15.4737 11.728 15.6022 11.6563L15.8912 11.226C16.0357 10.8496 16.0196 10.3297 15.9394 10.0428L15.6985 9.6126L14.8797 8.42942L13.9645 7.05801L13.0734 5.71349L12.1822 4.36898L11.4868 3.31566M10.5132 2.02493C10.5388 2.05651 10.5841 2.15308 10.6095 2.18627C12.305 4.40203 11.2451 2.98055 10.5132 2.02493Z" stroke="#FDF7F7" stroke-width="0.5"/>
<path d="M10.25 10.25C10.25 11.2165 9.4665 12 8.5 12C7.5335 12 6.75 11.2165 6.75 10.25C6.75 9.2835 7.5335 8.5 8.5 8.5C9.4665 8.5 10.25 9.2835 10.25 10.25Z" fill="white"/>
</svg>
