<svg id="visual" viewBox="0 0 960 540" width="960" height="540" xmlns="http://www.w3.org/2000/svg" xmlns:xlink="http://www.w3.org/1999/xlink" version="1.1"><path d="M0 419L32 412.5C64 406 128 393 192 392.3C256 391.7 320 403.3 384 415.2C448 427 512 439 576 444.2C640 449.3 704 447.7 768 435.3C832 423 896 400 928 388.5L960 377L960 541L928 541C896 541 832 541 768 541C704 541 640 541 576 541C512 541 448 541 384 541C320 541 256 541 192 541C128 541 64 541 32 541L0 541Z" fill="#ddd" stroke-linecap="round" stroke-linejoin="miter"></path></svg>